<?xml version="1.0" encoding="UTF-8" standalone="no"?>
<!-- Created with Inkscape (http://www.inkscape.org/) -->

<svg
   xmlns:dc="http://purl.org/dc/elements/1.1/"
   xmlns:cc="http://creativecommons.org/ns#"
   xmlns:rdf="http://www.w3.org/1999/02/22-rdf-syntax-ns#"
   xmlns:svg="http://www.w3.org/2000/svg"
   xmlns="http://www.w3.org/2000/svg"
   xmlns:sodipodi="http://sodipodi.sourceforge.net/DTD/sodipodi-0.dtd"
   xmlns:inkscape="http://www.inkscape.org/namespaces/inkscape"
   id="svg1468"
   sodipodi:docname="Anonymous_Mailbox_3_icon.svg"
   viewBox="0 0 184.71867 142.76661"
   sodipodi:version="0.32"
   version="1.0"
   y="0"
   x="0"
   inkscape:version="0.48.5 r10040"
   width="100%"
   height="100%">
  <defs
     id="defs15" />
  <sodipodi:namedview
     id="base"
     bordercolor="#666666"
     inkscape:pageshadow="2"
     inkscape:window-width="704"
     pagecolor="#ffffff"
     inkscape:zoom="1.8346667"
     inkscape:window-x="540"
     borderopacity="1.0"
     inkscape:current-layer="svg1468"
     inkscape:cx="92.244532"
     inkscape:cy="82.822134"
     inkscape:window-y="392"
     inkscape:window-height="510"
     inkscape:pageopacity="0.0"
     showgrid="false"
     fit-margin-top="0"
     fit-margin-left="0"
     fit-margin-right="0"
     fit-margin-bottom="0"
     inkscape:window-maximized="0" />
  <g
     id="layer1"
     transform="translate(-1.5054678,-33.805523)">
    <g
       id="g2185"
       transform="matrix(1.2714,0,0,1.2714,-588.24,5.8015)">
      <path
         id="path2163"
         style="fill:none;stroke:#000000;stroke-width:2.99399996"
         d="m 519.23,132.82 -23.19,-24.25 -6.33,-55.068 c 0,0 84.41,-38.073 101.74,-28.407 17.33,9.665 16.18,25.195 16.18,25.195 v 45.825 l -88.4,36.705 z"
         inkscape:connector-curvature="0" />
      <path
         id="path2165"
         style="fill:#ffffff;fill-rule:evenodd;stroke:#000000;stroke-width:2.93149996"
         d="M 483.91,111.31 V 64.201 c 0,0 -0.83,-18.229 17.73,-7.857 18.57,10.372 17.33,27.036 17.33,27.036 v 49.17 l -35.06,-21.24 z"
         inkscape:connector-curvature="0" />
      <path
         id="path2167"
         style="fill:#000000;fill-rule:evenodd;stroke:#000000;stroke-width:0.51378px"
         d="M 528.7,98.424 V 49.501 l 31.92,-9.593 v 20.145 l -25.31,8.633 v 29.738 c 0,0 -2.21,8.636 -6.61,0 z"
         inkscape:connector-curvature="0" />
      <path
         id="path2177"
         style="fill:#ffffff;fill-rule:evenodd;stroke:#000000;stroke-width:2.4769001"
         d="M 483.53,111.91 466.35,65.356 c 0,0 -6.89,-16.941 11.6,-5.663 18.48,11.278 23.17,26.584 23.17,26.584 l 16.77,45.493 -34.36,-19.86 z"
         inkscape:connector-curvature="0" />
      <path
         id="path2169"
         style="fill:#000000;fill-rule:evenodd"
         d="m 480.12,87.649 c 0,0 0.85,7.59 5.91,9.277 5.06,1.687 10.12,-1.687 10.12,-1.687 0,0 -4.22,0 -9.28,-2.53 -5.06,-2.53 -5.06,-5.06 -6.75,-5.06 z"
         inkscape:connector-curvature="0" />
      <path
         id="path2183"
         style="fill:none;stroke:#000000;stroke-width:1.9296"
         d="m 517.73,76.924 -15.35,6.31 9.48,20.416 7.22,-4.455 -1.35,-22.271 z"
         inkscape:connector-curvature="0" />
      <path
         id="path2181"
         style="fill:#ffffff;fill-rule:evenodd;stroke:#000000;stroke-width:1.75"
         d="m 517.78,80.265 -12.62,6.31 7.8,20.415 5.94,-4.45 -1.12,-22.275 z"
         inkscape:connector-curvature="0" />
    </g>
  </g>
  <metadata
     id="metadata13">
    <rdf:RDF>
      <cc:Work>
        <dc:format>image/svg+xml</dc:format>
        <dc:type
           rdf:resource="http://purl.org/dc/dcmitype/StillImage" />
        <cc:license
           rdf:resource="http://creativecommons.org/licenses/publicdomain/" />
        <dc:publisher>
          <cc:Agent
             rdf:about="http://openclipart.org/">
            <dc:title>Openclipart</dc:title>
          </cc:Agent>
        </dc:publisher>
        <dc:title>Mailbox 3 icon</dc:title>
        <dc:date>2006-12-26T00:00:00</dc:date>
        <dc:description />
        <dc:source>https://openclipart.org/detail/24649/-by--24649</dc:source>
        <dc:creator>
          <cc:Agent>
            <dc:title>Anonymous</dc:title>
          </cc:Agent>
        </dc:creator>
      </cc:Work>
      <cc:License
         rdf:about="http://creativecommons.org/licenses/publicdomain/">
        <cc:permits
           rdf:resource="http://creativecommons.org/ns#Reproduction" />
        <cc:permits
           rdf:resource="http://creativecommons.org/ns#Distribution" />
        <cc:permits
           rdf:resource="http://creativecommons.org/ns#DerivativeWorks" />
      </cc:License>
    </rdf:RDF>
  </metadata>
</svg>
