<?xml version="1.0" encoding="UTF-8" standalone="no"?>
<!-- Created with Inkscape (http://www.inkscape.org/) -->

<svg
   xmlns:dc="http://purl.org/dc/elements/1.1/"
   xmlns:cc="http://creativecommons.org/ns#"
   xmlns:rdf="http://www.w3.org/1999/02/22-rdf-syntax-ns#"
   xmlns:svg="http://www.w3.org/2000/svg"
   xmlns="http://www.w3.org/2000/svg"
   xmlns:sodipodi="http://sodipodi.sourceforge.net/DTD/sodipodi-0.dtd"
   xmlns:inkscape="http://www.inkscape.org/namespaces/inkscape"
   id="svg3957"
   viewBox="0 0 836.31487 532.61181"
   version="1.1"
   inkscape:version="0.48.5 r10040"
   width="100%"
   height="100%"
   sodipodi:docname="EmailSimple_1.svg">
  <defs
     id="defs11" />
  <sodipodi:namedview
     id="base"
     bordercolor="#666666"
     inkscape:pageshadow="2"
     inkscape:window-y="292"
     pagecolor="#ffffff"
     inkscape:window-height="878"
     inkscape:window-maximized="1"
     inkscape:zoom="0.47989729"
     inkscape:window-x="-8"
     showgrid="false"
     borderopacity="1.0"
     inkscape:current-layer="layer1"
     inkscape:cx="695.32034"
     inkscape:cy="160.46156"
     inkscape:window-width="1600"
     inkscape:pageopacity="0.0"
     inkscape:document-units="px"
     fit-margin-top="0"
     fit-margin-left="0"
     fit-margin-right="0"
     fit-margin-bottom="0" />
  <g
     id="layer1"
     inkscape:label="Layer 1"
     inkscape:groupmode="layer"
     transform="translate(-107.40327,-457.99724)">
    <g
       id="g3910"
       style="stroke:#000000"
       transform="matrix(2.6161,0,0,2.6161,8806.2,383.7)">
      <path
         id="path3912"
         style="fill:none;stroke:#000000;stroke-width:4;stroke-linecap:round;stroke-miterlimit:2"
         inkscape:connector-curvature="0"
         d="m -3323.1,30.4 78.905,68.375 78.905,68.375 78.905,-68.375 78.904,-68.375 m -315.62,0 h 315.68 v 199.59 h -315.68 z" />
      <g
         id="g3914"
         style="fill:#000000;stroke:#000000">
        <path
           id="path3916"
           d="m -3119.4,78.783 c -10e-5,5.0524 -0.5966,9.6837 -1.7894,13.894 -1.1579,4.1752 -2.7718,7.7715 -4.8418,10.789 -2.0701,3.0174 -4.5612,5.3681 -7.4732,7.0522 -2.8772,1.6841 -6.0173,2.5262 -9.4206,2.5262 -1.9648,0 -3.6489,-0.22805 -5.0523,-0.68417 -1.3684,-0.4912 -2.4911,-1.1403 -3.3682,-1.9473 -0.8772,-0.84205 -1.5088,-1.8244 -1.8946,-2.9472 -0.3861,-1.1227 -0.579,-2.3507 -0.579,-3.684 0,-0.52627 0.018,-1.1578 0.053,-1.8946 0.035,-0.77187 0.07,-1.3683 0.1052,-1.7894 h -0.3157 c -0.8422,1.5789 -1.8772,3.1577 -3.1051,4.7366 -1.193,1.5438 -2.614,2.9297 -4.2629,4.1576 -1.614,1.1929 -3.456,2.1753 -5.526,2.9472 -2.0351,0.7368 -4.2981,1.1052 -6.7891,1.1052 -2.9473,0 -5.5261,-0.50874 -7.7364,-1.5262 -2.1754,-1.0175 -3.9823,-2.4209 -5.4208,-4.2103 -1.4034,-1.8244 -2.456,-3.9647 -3.1577,-6.4207 -0.7017,-2.4911 -1.0526,-5.1927 -1.0525,-8.1048 -1e-4,-4.2103 0.6139,-8.2451 1.842,-12.105 1.263,-3.8945 3.0524,-7.3153 5.3681,-10.263 2.3156,-2.9822 5.0874,-5.3681 8.3153,-7.1575 3.2629,-1.7893 6.8943,-2.684 10.894,-2.6841 2.1051,5.8e-5 3.9997,0.24566 5.6839,0.7368 1.684,0.45617 3.1576,1.1053 4.4208,1.9473 1.2981,0.84211 2.4208,1.8596 3.3682,3.0525 0.9472,1.1579 1.7367,2.4385 2.3683,3.8419 h 0.3158 l 2.0525,-8.4206 h 8.21 l -6.1049,26.63 c -0.6667,2.9472 -1.1579,5.4734 -1.4736,7.5785 -0.3158,2.1052 -0.4737,4.0173 -0.4737,5.7365 0,1.6841 0.3684,2.9297 1.1052,3.7366 0.7719,0.80698 1.8244,1.2105 3.1578,1.2105 2.1752,10e-6 4.1926,-0.7017 6.0522,-2.1052 1.8946,-1.4385 3.5261,-3.4033 4.8945,-5.8944 1.4033,-2.4911 2.491,-5.4207 3.263,-8.789 0.8068,-3.3682 1.2103,-7.0171 1.2104,-10.947 -1e-4,-4.526 -0.7369,-8.7363 -2.2104,-12.631 -1.4386,-3.8945 -3.5788,-7.2627 -6.4207,-10.105 -2.8069,-2.8419 -6.2979,-5.0698 -10.473,-6.6838 -4.1753,-1.6139 -8.9996,-2.4208 -14.473,-2.4209 -4.7015,7.1e-5 -9.0521,0.56144 -13.052,1.6841 -3.9647,1.1228 -7.561,2.7017 -10.789,4.7366 -3.2279,2.035 -6.0699,4.4735 -8.5258,7.3154 -2.421,2.8069 -4.4559,5.8944 -6.1049,9.2626 -1.6491,3.3683 -2.8946,6.9821 -3.7367,10.841 -0.842,3.8244 -1.2631,7.754 -1.2631,11.789 0,4.9471 0.7544,9.5082 2.2631,13.683 1.5086,4.1752 3.7015,7.7715 6.5785,10.789 2.9121,2.9823 6.4909,5.3155 10.736,6.9996 4.2804,1.6841 9.1924,2.5262 14.736,2.5262 3.684,-10e-6 7.1224,-0.29824 10.315,-0.89469 3.1928,-0.56137 6.1224,-1.2631 8.789,-2.1051 2.6664,-0.84206 5.0523,-1.7718 7.1575,-2.7893 2.1051,-0.9824 3.9295,-1.8946 5.4734,-2.7367 l 2.8945,5.8944 c -1.7543,1.0526 -3.8244,2.1227 -6.2101,3.2103 -2.3509,1.1227 -4.9823,2.1402 -7.8943,3.0525 -2.9122,0.91221 -6.0875,1.649 -9.5258,2.2104 -3.4384,0.59644 -7.1049,0.89467 -10.999,0.89468 -6.6663,-1e-5 -12.596,-1.0175 -17.788,-3.0524 -5.1576,-1.9999 -9.5258,-4.8068 -13.104,-8.4206 -3.5437,-3.6138 -6.2453,-7.9118 -8.1048,-12.894 -1.8245,-4.9822 -2.7367,-10.438 -2.7367,-16.367 0,-4.8769 0.5438,-9.5608 1.6315,-14.052 1.1227,-4.4909 2.7191,-8.6661 4.7892,-12.526 2.07,-3.8594 4.5962,-7.3679 7.5785,-10.526 2.9823,-3.1576 6.3505,-5.8592 10.105,-8.1048 3.7892,-2.2454 7.9118,-3.9822 12.368,-5.2102 4.4909,-1.2279 9.2626,-1.8419 14.315,-1.842 7.0521,7.8e-5 13.14,1.0351 18.262,3.1051 5.1224,2.0701 9.3502,4.8594 12.683,8.3679 3.3682,3.5086 5.8593,7.5786 7.4733,12.21 1.6138,4.6314 2.4208,9.5258 2.4209,14.683 m -31.893,0.42103 c -1e-4,-1.7542 -0.2983,-3.3682 -0.8947,-4.8418 -0.5965,-1.4736 -1.4561,-2.7366 -2.5788,-3.7893 -1.0877,-1.0525 -2.4209,-1.8595 -3.9997,-2.4209 -1.5439,-0.59641 -3.2982,-0.89463 -5.2629,-0.89468 -3.0174,5.1e-5 -5.6664,0.75439 -7.9469,2.263 -2.2806,1.4736 -4.1928,3.4209 -5.7365,5.8418 -1.5087,2.421 -2.6666,5.1576 -3.4735,8.2101 -0.7719,3.0174 -1.1579,6.0523 -1.1578,9.1047 -1e-4,4.2103 0.8244,7.5084 2.4735,9.8942 1.6841,2.3858 4.2629,3.5788 7.7364,3.5787 2.4209,10e-6 4.6839,-0.54382 6.7891,-1.6315 2.1051,-1.0876 3.9997,-2.5262 5.6839,-4.3155 1.684,-1.7893 3.1401,-3.8419 4.3681,-6.1575 1.228,-2.3156 2.1577,-4.719 2.7894,-7.2101 0.3157,-1.2631 0.5963,-2.5963 0.842,-3.9998 0.2455,-1.4034 0.3683,-2.6138 0.3684,-3.6314"
           style="stroke:#000000"
           inkscape:connector-curvature="0" />
      </g>
    </g>
  </g>
  <metadata
     id="metadata9">
    <rdf:RDF>
      <cc:Work>
        <dc:format>image/svg+xml</dc:format>
        <dc:type
           rdf:resource="http://purl.org/dc/dcmitype/StillImage" />
        <cc:license
           rdf:resource="http://creativecommons.org/licenses/publicdomain/" />
        <dc:publisher>
          <cc:Agent
             rdf:about="http://openclipart.org/">
            <dc:title>Openclipart</dc:title>
          </cc:Agent>
        </dc:publisher>
        <dc:title>Email.Simple_1</dc:title>
        <dc:date>2012-06-11T07:24:33</dc:date>
        <dc:description />
        <dc:source>https://openclipart.org/detail/170554/email.simple_1-by-gezegen-170554</dc:source>
        <dc:creator>
          <cc:Agent>
            <dc:title>gezegen</dc:title>
          </cc:Agent>
        </dc:creator>
        <dc:subject>
          <rdf:Bag>
            <rdf:li>E-mail</rdf:li>
            <rdf:li>E-posta</rdf:li>
            <rdf:li>Email</rdf:li>
            <rdf:li>Eposta</rdf:li>
            <rdf:li>at</rdf:li>
            <rdf:li>e-mail</rdf:li>
            <rdf:li>e-posta</rdf:li>
            <rdf:li>email</rdf:li>
            <rdf:li>eposta</rdf:li>
          </rdf:Bag>
        </dc:subject>
      </cc:Work>
      <cc:License
         rdf:about="http://creativecommons.org/licenses/publicdomain/">
        <cc:permits
           rdf:resource="http://creativecommons.org/ns#Reproduction" />
        <cc:permits
           rdf:resource="http://creativecommons.org/ns#Distribution" />
        <cc:permits
           rdf:resource="http://creativecommons.org/ns#DerivativeWorks" />
      </cc:License>
    </rdf:RDF>
  </metadata>
</svg>
